<svg width="381" height="381" xmlns="http://www.w3.org/2000/svg" xmlns:xlink="http://www.w3.org/1999/xlink" xml:space="preserve" overflow="hidden"><g transform="translate(484 -142)"><path d="M-226.031 204.587C-249.09 204.587-273.958 219.113-293.5 257.888-313.038 219.121-337.914 204.587-360.969 204.587-396.914 204.587-428.438 239.909-428.438 273.763-428.438 357.106-293.5 460.294-293.5 460.294-293.5 460.294-158.562 357.106-158.562 273.763-158.562 239.913-190.09 204.587-226.031 204.587ZM-293.5 450.162C-317.253 430.977-420.5 343.545-420.5 273.763-419.876 258.06-413.43 243.152-402.418 231.94-391.818 220.099-376.851 213.089-360.969 212.525-337.601 212.525-316.721 229.447-300.588 261.459L-293.5 275.525-286.412 261.459C-270.279 229.447-249.399 212.525-226.031 212.525-195.988 212.525-166.5 242.858-166.5 273.763-166.5 343.545-269.747 430.977-293.5 450.162Z" fill="#FFFFFF"/></g></svg>