<svg width="330" height="330" xmlns="http://www.w3.org/2000/svg" xmlns:xlink="http://www.w3.org/1999/xlink" xml:space="preserve" overflow="hidden"><g transform="translate(207 -343)"><path d="M13 446.125C13 476.501-11.6243 501.125-42 501.125-72.3757 501.125-97 476.501-97 446.125-97 415.749-72.3757 391.125-42 391.125-11.6243 391.125 13 415.749 13 446.125Z" fill="#FFFFFF"/><path d="M68 624.875 68 569.875C68 561.625 63.875 553.375 57 547.875 41.875 535.5 22.625 527.25 3.375 521.75-10.375 517.625-25.5 514.875-42 514.875-57.125 514.875-72.25 517.625-87.375 521.75-106.625 527.25-125.875 536.875-141 547.875-147.875 553.375-152 561.625-152 569.875L-152 624.875 68 624.875Z" fill="#FFFFFF"/></g></svg>