<svg width="96" height="96" xmlns="http://www.w3.org/2000/svg" xmlns:xlink="http://www.w3.org/1999/xlink" xml:space="preserve" overflow="hidden"><g transform="translate(158 -257)"><path d="M-150 277-150 333-70 333-70 277-150 277ZM-108.6 311.9C-109.4 312.7-110.6 312.7-111.4 311.9L-141 283-78.9 283-108.6 311.9ZM-124.5 304.7-144 324.3-144 285.6-124.5 304.7ZM-121.6 307.5-114.1 314.8C-112.9 315.9-111.4 316.5-109.9 316.5-108.4 316.5-106.9 315.9-105.7 314.8L-98.2 307.5-78.8 327-141.1 327-121.6 307.5ZM-95.5 304.7-76 285.7-76 324.2-95.5 304.7Z" stroke="#FFFFFF" fill="#FFFFFF"/></g></svg>