<svg width="191" height="191" xmlns="http://www.w3.org/2000/svg" xmlns:xlink="http://www.w3.org/1999/xlink" xml:space="preserve" overflow="hidden"><g transform="translate(204 -47)"><path d="M-74.4781 196.219-72.8865 178.312-49.8073 178.312-52.7917 196.219-74.4781 196.219ZM-167.193 178.312-144.114 178.312-142.522 196.219-164.009 196.219-167.193 178.312ZM-148.292 126.583-146.7 144.49-172.962 144.49-175.947 126.583-148.292 126.583ZM-109.893 88.5823C-109.296 87.9854-108.699 87.9854-108.5 87.9854-108.301 87.9854-107.505 87.9854-107.107 88.5823L-81.0437 114.447-135.956 114.447-109.893 88.5823ZM-70.8969 152.448-45.4302 152.448-48.4146 170.354-72.2896 170.354-70.8969 152.448ZM-104.521 170.354-104.521 152.448-78.8552 152.448-80.4469 170.354-104.521 170.354ZM-104.521 178.312-81.0437 178.312-82.6354 196.219-104.521 196.219-104.521 178.312ZM-112.479 178.312-112.479 196.219-134.564 196.219-136.155 178.312-112.479 178.312ZM-112.479 144.49-138.742 144.49-140.333 126.583-112.479 126.583-112.479 144.49ZM-104.521 126.583-76.6667 126.583-78.2583 144.49-104.521 144.49-104.521 126.583ZM-144.71 170.354-168.585 170.354-171.57 152.448-146.103 152.448-144.71 170.354ZM-138.145 152.448-112.479 152.448-112.479 170.354-136.752 170.354-138.145 152.448ZM-44.0375 144.49-70.101 144.49-68.5094 126.583-40.8542 126.583-44.0375 144.49ZM-64.3313 114.646-64.3313 114.646-98.5521 80.226C-101.139 77.6396-104.72 76.0479-108.5 76.0479-112.28 76.0479-115.662 77.4406-118.249 80.226L-152.47 114.447-152.669 114.646-190.073 114.646-175.35 201.591C-174.753 205.371-171.371 208.156-167.591 208.156L-49.8073 208.156C-46.0271 208.156-42.6448 205.371-42.0479 201.591L-26.9271 114.646-64.3313 114.646Z" fill="#FFFFFF"/></g></svg>